<?xml version="1.0" encoding="UTF-8"?>
<!DOCTYPE svg PUBLIC "-//W3C//DTD SVG 1.1//EN" "http://www.w3.org/Graphics/SVG/1.1/DTD/svg11.dtd">
<!-- Creator: CorelDRAW 2020 (64-Bit) -->
<svg xmlns="http://www.w3.org/2000/svg" xml:space="preserve" width="35.3249mm" height="33.354mm" version="1.1" style="shape-rendering:geometricPrecision; text-rendering:geometricPrecision; image-rendering:optimizeQuality; fill-rule:evenodd; clip-rule:evenodd"
viewBox="0 0 1273.56 1202.51"
 xmlns:xlink="http://www.w3.org/1999/xlink"
 xmlns:xodm="http://www.corel.com/coreldraw/odm/2003">
 <defs>
  <style type="text/css">
   <![CDATA[
    .fil3 {fill:#373435}
    .fil2 {fill:#727376}
    .fil1 {fill:#96989A}
    .fil4 {fill:#FDC83E;fill-rule:nonzero}
    .fil0 {fill:url(#id0)}
   ]]>
  </style>
  <linearGradient id="id0" gradientUnits="userSpaceOnUse" x1="874.67" y1="1202.47" x2="874.67" y2="17.35">
   <stop offset="0" style="stop-opacity:1; stop-color:#373435"/>
   <stop offset="0.0784314" style="stop-opacity:1; stop-color:#D2D3D5"/>
   <stop offset="0.14902" style="stop-opacity:1; stop-color:#373435"/>
   <stop offset="0.258824" style="stop-opacity:1; stop-color:#D2D3D5"/>
   <stop offset="0.34902" style="stop-opacity:1; stop-color:#373435"/>
   <stop offset="0.45098" style="stop-opacity:1; stop-color:#D2D3D5"/>
   <stop offset="0.541176" style="stop-opacity:1; stop-color:#373435"/>
   <stop offset="0.639216" style="stop-opacity:1; stop-color:#D2D3D5"/>
   <stop offset="0.760784" style="stop-opacity:1; stop-color:#373435"/>
   <stop offset="0.858824" style="stop-opacity:1; stop-color:#D2D3D5"/>
   <stop offset="0.94902" style="stop-opacity:1; stop-color:#373435"/>
   <stop offset="1" style="stop-opacity:1; stop-color:#D2D3D5"/>
  </linearGradient>
 </defs>
 <g id="Capa_x0020_1">
  <metadata id="CorelCorpID_0Corel-Layer"/>
  <g id="_2326156003840">
   <path class="fil0" d="M493.94 239.84l97.26 43.96 -39.56 79.64c22.75,10.66 41.44,23.68 56.43,38.86l8.13 -18.47c-14,-12.96 -30.94,-24.23 -51.04,-33.65l39.56 -79.64 -95.75 -43.27 -15.02 12.57zm159.98 75.78l77.51 43.97 1.66 -19.98 -71.79 -40.73 -7.38 16.74zm88.61 837.52l-0.08 13.31 -56 -0.25c1.63,-36.51 2.48,-75.34 2.73,-117.68l13.42 0.33c-0.34,37.11 -1.18,71.53 -2.63,104.09l42.56 0.19zm400.54 -47.21l-0.58 -0.22 -0.69 0.26 1.27 -0.04zm-10.83 -4.14l-20.03 -7.66 -148.92 4.87c-35.81,-30.02 -55.91,-21.05 -61.12,-5.74 10.36,-2.97 26.15,1.01 47.61,18.99l8.09 -0.26c1.22,-0.94 2.44,-1.9 3.7,-2.92l170.68 -7.28zm-359.95 -55.84l-13.45 2.9 -0.74 119.11 151.08 34.54 232.72 -88.45 -24.05 1.03 -195.15 74.17 -151.08 -34.55 0.67 -108.75zm-53.39 -535.85l-0.13 -0.14 -27.88 27.88c3.38,23.65 4.13,49.33 2.56,76.76 -1.23,21.58 -2.13,44.22 -2.75,67.82 40.36,23.8 73.6,-13.05 73.6,-13.05l7.64 -7.82c-11.27,9.25 -37.49,25.44 -67.72,7.62 0.62,-23.61 1.53,-46.24 2.75,-67.83 1.57,-27.43 0.83,-53.11 -2.56,-76.77l14.49 -14.49zm184.52 -184.51l-0.14 -0.13 -168.71 168.71 104.57 104.55 13.46 -13.31 -104.51 -104.5 155.33 -155.32zm129.06 77.26l-105.5 -105.02 18.77 -8.04 93.96 93.54 -7.22 19.52zm-1.78 445.31c-13.85,25.29 -56.97,20.73 -56.97,20.73l-260.49 31.19c0,0 -11.3,1.73 -24.05,-0.76 -0.05,-28.1 -0.05,-55.53 0.06,-82.2 4.38,-1.74 8.93,-3.26 13.48,-4.56 -0.09,23.92 -0.07,48.44 -0.03,73.5 12.76,2.49 24.05,0.77 24.05,0.77l260.49 -31.19c0,0 25.38,2.68 43.45,-7.48zm224.83 -170c0,0 -4.58,16.26 -17.72,32.22 6.08,-4.77 11.1,-10.08 15.2,-15.35 0.9,-5.47 1.75,-11.09 2.52,-16.87zm-175.22 74.15c-36.31,28.08 -44.18,84.15 -4.36,102 35.61,15.96 85.2,17.21 124.2,-27.12 -36.46,30.61 -79.08,28.03 -110.69,13.87 -34.24,-15.34 -33.2,-58.98 -9.16,-88.75z"/>
   <path class="fil1" d="M511.99 222.51l97.26 43.96 -39.58 79.62c22.76,10.66 41.45,23.69 56.43,38.88l39.72 -90.17 83.65 47.45 28.32 -342.24 -265.8 222.51z"/>
   <path class="fil1" d="M1273.56 660.82c0,0 -21.93,78.12 -107.89,59.87 -85.96,-18.25 -130.05,90.13 -71.68,116.28 58.37,26.16 154.35,12.82 179.58,-176.15z"/>
   <path class="fil2" d="M990.46 767.9c0,0 55.8,-14.5 62.09,38.14 6.31,52.63 -60.79,45.51 -60.79,45.51l-260.49 31.2c0,0 -11.31,1.72 -24.05,-0.78 -0.04,-28.09 -0.04,-55.53 0.07,-82.17 28.66,-11.48 64.4,-12.61 64.4,-12.61l218.76 -19.29z"/>
   <polygon class="fil1" points="1050.51,385.52 945.02,280.49 1116.52,207.06 "/>
   <polygon class="fil3" points="1095.43,264.06 1061.84,230.47 1116.52,207.06 "/>
   <polygon class="fil2" points="1026.82,413.62 921.32,308.11 752.62,476.82 857.19,581.39 "/>
   <path class="fil1" d="M838.58 594.42l-101.77 -101.8 -27.88 27.89c3.39,23.64 4.13,49.32 2.56,76.75 -1.23,21.58 -2.12,44.23 -2.76,67.83 40.36,23.79 73.61,-13.05 73.61,-13.05l56.24 -57.62z"/>
   <path class="fil1" d="M1161.11 1088.6l-233.84 -89.42 -150.39 32.34 -0.74 119.11 151.08 34.54 232.72 -88.46 -193.86 8.27c-79.81,65.53 -82.87,-80.97 1.73,-10.06l193.3 -6.32z"/>
   <path class="fil1" d="M761.23 1032.52l-0.72 116.59 -56 -0.25c1.63,-36.5 2.47,-75.35 2.73,-117.67l53.99 1.33z"/>
  </g>
  <path class="fil4" d="M672.01 919.74c0,69.44 -21.66,127.09 -65.19,172.74 -49.52,52.42 -136.37,78.72 -260.55,78.72 -9.48,0 -23.02,-0.19 -40.82,-0.58 -18.18,0 -31.53,0 -40.23,0 -139.47,0 -222.26,-2.9 -248.76,-8.51 -11.02,-2.32 -16.44,-8.13 -16.44,-17.6 0,-40.43 2.32,-101.56 6.97,-183.58 4.64,-82.02 6.96,-143.33 6.96,-184.15 0,-43.91 -2.32,-126.12 -6.96,-247.02 -1.16,-30.95 -3.29,-77.57 -6.38,-139.47l-0.58 -7.93c-0.39,-7.16 5.61,-11.41 17.8,-12.96 12.38,-1.55 56.1,-2.32 131.34,-2.32 120.7,0 191.11,0.39 211.62,1.16 93.04,3.29 161.71,18.57 206.01,45.26 58.61,35.98 87.82,96.72 87.82,182.22 0,22.24 -6.77,45.84 -20.5,70.8 -9.86,17.8 -22.63,35.59 -38.5,53.39 -14.12,15.48 -21.08,22.63 -21.08,21.48 0,2.7 4.84,6.76 14.7,12.37 26.5,15.1 47.2,39.08 62.48,71.97 13.54,29.39 20.31,60.73 20.31,94.01zm-243.72 -319.36c0,-32.5 -16.25,-53.97 -48.75,-64.61 -17.99,-5.61 -47.78,-8.51 -89.37,-8.51 -40.62,0 -61.13,3.1 -61.13,9.09 0,7.16 -0.58,17.99 -1.93,32.49 -1.36,14.51 -1.93,25.53 -1.93,32.69 0,37.72 3.29,58.81 9.67,63.45 4.06,3.29 28.05,5.03 71.77,5.03 81.05,0 121.67,-23.21 121.67,-69.64zm17.41 317.04c0,-33.85 -14.12,-56.87 -42.56,-69.05 -18.19,-7.55 -47.78,-11.22 -88.6,-11.22 -48.94,0 -75.44,1.74 -79.69,5.42 -4.06,3.49 -6.19,26.69 -6.19,69.25 0,44.49 2.52,69.06 7.35,73.7 5.03,4.84 32.3,7.15 81.83,7.15 41.01,0 69.64,-3.29 86.46,-9.67 27.66,-10.83 41.4,-32.69 41.4,-65.58z"/>
 </g>
</svg>
