<?xml version="1.0" encoding="UTF-8"?>
<!DOCTYPE svg PUBLIC "-//W3C//DTD SVG 1.1//EN" "http://www.w3.org/Graphics/SVG/1.1/DTD/svg11.dtd">
<!-- Creator: CorelDRAW 2020 (64-Bit) -->
<svg xmlns="http://www.w3.org/2000/svg" xml:space="preserve" width="101.045mm" height="37.4667mm" version="1.1" style="shape-rendering:geometricPrecision; text-rendering:geometricPrecision; image-rendering:optimizeQuality; fill-rule:evenodd; clip-rule:evenodd"
viewBox="0 0 54859.5 20341.56"
 xmlns:xlink="http://www.w3.org/1999/xlink"
 xmlns:xodm="http://www.corel.com/coreldraw/odm/2003">
 <defs>
  <style type="text/css">
   <![CDATA[
    .fil0 {fill:#FEFEFE}
    .fil7 {fill:#373435}
    .fil6 {fill:#727376}
    .fil5 {fill:#96989A}
    .fil1 {fill:black;fill-rule:nonzero}
    .fil3 {fill:#A37E1F;fill-rule:nonzero}
    .fil2 {fill:#FDC83E;fill-rule:nonzero}
    .fil4 {fill:url(#id0)}
   ]]>
  </style>
  <linearGradient id="id0" gradientUnits="userSpaceOnUse" x1="48309.59" y1="18652.05" x2="48309.59" y2="805.15">
   <stop offset="0" style="stop-opacity:1; stop-color:#373435"/>
   <stop offset="0.0784314" style="stop-opacity:1; stop-color:#D2D3D5"/>
   <stop offset="0.14902" style="stop-opacity:1; stop-color:#373435"/>
   <stop offset="0.258824" style="stop-opacity:1; stop-color:#D2D3D5"/>
   <stop offset="0.34902" style="stop-opacity:1; stop-color:#373435"/>
   <stop offset="0.45098" style="stop-opacity:1; stop-color:#D2D3D5"/>
   <stop offset="0.541176" style="stop-opacity:1; stop-color:#373435"/>
   <stop offset="0.639216" style="stop-opacity:1; stop-color:#D2D3D5"/>
   <stop offset="0.760784" style="stop-opacity:1; stop-color:#373435"/>
   <stop offset="0.858824" style="stop-opacity:1; stop-color:#D2D3D5"/>
   <stop offset="0.94902" style="stop-opacity:1; stop-color:#373435"/>
   <stop offset="1" style="stop-opacity:1; stop-color:#D2D3D5"/>
  </linearGradient>
 </defs>
 <g id="Capa_x0020_1">
  <metadata id="CorelCorpID_0Corel-Layer"/>
  <path class="fil0" d="M48425.04 5003.86l162.12 -162.12c49.68,-139.31 150.77,-247.14 291.33,-308.81 55.05,-117.81 150.17,-209.19 276.67,-263.37l2582.63 -1105.77c203.87,-87.25 427.17,-47.13 587.82,105.71 160.71,152.78 212.01,373.75 135.08,581.74l-993.93 2687.47c-53.59,144.91 -156.25,252.84 -292.42,310.23 -15.85,33.28 -34.53,64.28 -55.81,92.73 -25.73,80.95 -71.12,153.7 -135.95,217.82l-2554.51 2526.5c-19,18.79 -39.04,35.89 -59.94,51.25 -3.04,3.2 -6.19,6.3 -9.34,9.45l-202.67 200.39c-55.98,55.32 -121.07,95.99 -190.51,121.94l-650.69 666.66c-56.74,62.27 -117.92,119.01 -182.69,169.88l-89.26 91.43c-452.91,497.05 -1189.33,640.54 -1779.87,292.31 -76.72,-45.23 -138.55,-104.68 -183.35,-174.28 -106.85,262.78 -281.78,482.88 -545.42,616.6 156.96,303.49 311.04,647.11 311.04,851.68 0,183.29 -73.24,342.64 -176.02,485.81 138.5,281.67 268.86,599.77 268.86,829.26 0,227.65 -126.39,407.9 -274.88,566.38 -173.74,185.52 -365.44,348.56 -572.08,490.37 33.66,47.18 64.83,93.87 92.35,139.59 324.18,511.11 496.02,1077.76 496.02,1683.17 0,372.99 -69.17,742.88 -189.15,1095.4 -127.8,375.43 -321.95,745.05 -619.15,1014.13 -457.68,414.36 -971.13,751.46 -1531.26,1010.76 -567.74,262.78 -1186.78,443.41 -1816.41,443.41 -304.85,0 -516.1,-218.31 -689.68,-439.77 -182.21,-232.48 -346.33,-494.55 -500.14,-746.52 -94.52,-154.79 -245.67,-395.47 -377.98,-646.78 -25.57,181.99 -130.95,333.9 -252.68,470.93 -883.45,994.53 -2190.15,1292.27 -3472,1292.27 -1330.98,0 -2539.42,-396.28 -3490.62,-1343.79 -980.52,-976.67 -1372.46,-2232.99 -1372.46,-3600.62 0,-124.06 3.04,-248.17 9.34,-372.12 -119.61,53.32 -257.29,81.93 -408.33,81.93 -161.41,0 -326.84,-12.76 -487.82,-24.76 -131.55,-9.77 -266.85,-19 -398.83,-19 -90.83,0 -343.24,8.52 -476.74,48.97 -27.85,60.54 -62.98,117.16 -105.16,168.79 -22.8,117.05 -27.09,253.17 -27.09,357.9 0,368.81 4.89,737.89 11.08,1106.59 6.24,374.83 11.08,749.94 11.08,1124.77 0,234.22 15.64,474.14 29.43,707.97 14.88,252.35 31.33,510.29 31.33,763.02 0,448.24 -331.78,730.67 -760.36,770.73 -404.8,37.79 -831.7,37.3 -1238.25,37.3 -425.27,0 -868.68,-5.54 -1291.18,-56.25 -442.97,-53.21 -746.14,-370.65 -746.14,-821.66 0,-681.69 4.18,-1363.55 8.31,-2045.3 4.13,-680.45 8.25,-1361.06 8.25,-2041.56 0,-45.44 -0.16,-90.89 -0.43,-136.33 -6.24,-19.93 -11.78,-40.01 -16.72,-60.26 -6.84,-28.23 -10.86,-52.77 -13.36,-81.71 -0.6,-7.06 -1.25,-14.12 -1.85,-21.12 -67.11,39.96 -134.32,79.54 -201.26,118.95 -621.32,365.98 -1332.71,654.87 -2064.03,654.87 -25.9,0 -51.74,-0.16 -77.64,-0.54 0.16,362.29 4.99,724.86 11.08,1087.1 6.24,374.83 11.08,749.94 11.08,1124.77 0,234.22 15.64,474.14 29.48,707.92 14.88,252.35 31.27,510.35 31.27,763.08 0,448.24 -331.78,730.67 -760.36,770.73 -404.8,37.79 -831.65,37.3 -1238.19,37.3 -425.27,0 -868.79,-5.48 -1291.24,-56.25 -442.92,-53.26 -746.09,-370.65 -746.09,-821.66 0,-681.69 4.18,-1363.55 8.31,-2045.3 4.13,-680.45 8.25,-1361.06 8.25,-2041.56 0,-1027.86 -61.24,-2162.68 -329.39,-3159.22 -2.77,-10.32 -4.89,-19.11 -7.11,-29.59 -16.45,-78.45 -28.12,-159.51 -28.12,-239.81 0,-315 183.45,-574.74 479.02,-682.13 41.48,-15.09 78.4,-23.83 122.27,-28.94 123.19,-14.44 246.32,-30.35 369.35,-47.23 -4.99,-223.52 -7.11,-447.1 -7.11,-670.56 0,-56.63 0.16,-113.69 0.49,-171.13 -149.47,269.62 -440.53,425.71 -800.43,425.71 -168.85,0 -341.61,-12.76 -510.02,-24.65 -140.4,-9.88 -284.27,-19.06 -425.05,-19.06 -119.71,0 -502.58,13.46 -594.94,81 -64.55,82.74 -76.88,395.68 -76.88,494.66 0,89.15 0.33,178.35 0.92,267.5 180.63,141.11 349.59,296.65 506.44,464.47 909.61,973.3 1278.75,2191.95 1278.75,3510.87 0,1322.4 -364.08,2551.96 -1275.33,3530.58 -895.93,962.22 -2055.51,1384.62 -3361.24,1384.62 -1289.01,0 -2423.18,-430.65 -3319.54,-1363.99 -912.49,-950.06 -1300.14,-2140.31 -1300.46,-3447.62 -633.75,146.48 -1300.46,202.67 -1940.57,212.01 6.62,194.91 13.57,389.87 20.74,584.78 37.41,1013.69 74.92,2035.2 74.92,3049.6 0,273.69 -99.03,537.93 -350.35,677.95 -126.5,70.31 -273.42,87.3 -415.28,107.28 -484.12,68.03 -1012.34,72.26 -1500.91,72.26 -488.96,0 -1070.59,5.54 -1552.65,-74.27 -4.89,-0.81 -9.01,-1.57 -13.84,-2.5 -403.72,-77.64 -666.87,-385.04 -666.87,-798.21 0,-1011.74 41.75,-2032.22 83.28,-3043.03 8.63,-209.19 16.88,-418.43 24.7,-627.67 -128.89,-6.08 -257.62,-13.46 -386.13,-22.64 -194.91,-13.9 -404.97,-30.35 -596.24,-70.74 -398.78,-84.15 -678.38,-377.44 -678.38,-796.2 0,-927.15 53.37,-1869.61 105.76,-2795.19 17.97,-317.66 34.96,-635.44 50,-953.27 -177.48,6.84 -355.02,10.8 -532.28,10.8 -364.84,0 -672.79,-248.01 -672.79,-627.35 0,-221.89 78.94,-551.28 124.82,-770.03 43.71,-208.05 107.34,-453.12 136.76,-664.05 13.9,-266.25 32.2,-532.28 55.38,-797.88 16.88,-193.61 41.37,-404.75 97.73,-591.08 90.07,-297.58 299.42,-545.48 636.52,-545.48 51.52,0 106.36,5.81 157.99,10.59 -16.72,-504.7 -35.4,-1009.35 -54.62,-1513.89 -26.55,-698.04 -60.97,-1396.18 -95.07,-2081.35l-8.74 -119.39c-0.27,-3.53 -0.49,-6.57 -0.65,-10.15 -24.54,-451.06 329.61,-711.34 742.29,-763.3 219.18,-27.58 470.93,-26.49 692.23,-30.4 450.95,-7.93 902.5,-8.74 1353.51,-8.74 720.73,0 1441.57,0.54 2162.3,4.56 346.55,1.95 697.6,0.81 1043.93,13.19 1077.92,38.6 2425.62,188.29 3365.2,760.47 1158.44,705.42 1583.06,1893.66 1583.06,3207.76 0,470.66 -150.77,919.77 -376.35,1328.48 -157.45,285.25 -346.87,551.56 -558.51,798.91 366.47,291.77 640.32,674.69 840.93,1108.16 139.91,302.25 237.58,615.78 294.75,937.9 43.81,-11.94 87.74,-23.18 131.88,-33.82 -2.33,-1010.65 -70.25,-2124.19 -346.39,-3097.11 -3.04,-10.75 -5.37,-19.98 -7.82,-30.89 -17.75,-80.24 -30.3,-163.26 -30.3,-245.56 0,-320.98 192.19,-580.93 494.01,-685.06 39.9,-13.79 75.25,-21.72 117.22,-26.39 448.56,-49.79 897.78,-115.64 1343.79,-184.49 339.22,-66.78 678.49,-133.4 1018.09,-197.79 128.29,-24.32 342.31,-75.41 471.15,-75.41 444.98,0 624.09,363.43 697.17,735.39 29.21,-16.12 58.47,-32.14 87.63,-48.1 565.62,-310.01 1184.17,-512.47 1833.94,-512.47 375.32,0 790.17,83.66 959.4,467.08 38.93,88.28 58.36,183.35 58.36,279.77 0,250.12 -28.07,510.78 -55.81,759.28 -23.89,214.02 -48.32,434.94 -57.77,650.37 0,29.59 0.05,59.23 0.16,88.82 50.6,-473.97 129.54,-940.89 250.5,-1375.93 117.11,-421.15 412.68,-747.12 872.59,-747.12 400.95,0 802.17,4.45 1203.12,8.8 396.06,4.23 792.4,8.63 1188.46,8.63 456.33,0 807.98,293.78 807.98,764.38 0,86.81 -10.59,175.26 -23.4,260.98 -112.82,753.74 -168.85,1514.11 -168.85,2276.21 0,368.37 -0.87,759.01 15.64,1142.75 191.38,-38.11 386.29,-58.74 583.86,-58.74 294.64,0 608.56,56.74 807.92,271.35 2.01,-261.8 1.25,-524.03 2.23,-784.36 3.47,-969.99 3.8,-1940.08 3.8,-2910.07 0,-217.12 9.61,-453.12 135.46,-637.5 167.93,-257.62 466.53,-324.99 757.05,-324.99 421.31,0 842.83,4.45 1264.09,8.9 417.45,4.34 835.18,8.58 1252.69,8.58 349.91,0 687.99,139.69 810.31,493.95 4.51,13.08 7.98,24.38 11.51,37.73 29.26,110.05 35.72,229.82 35.72,343.34 0,638.64 -30.95,1284.72 -61.84,1922.6 -29.97,619.26 -60.48,1247.15 -60.48,1867.17 0,3.85 0,7.71 0,11.62 12.22,-5.48 24.49,-10.91 36.76,-16.23 -2.71,-75.14 -4.07,-150.28 -4.07,-225.48 0,-1345.42 438.57,-2539.96 1374.47,-3516.03 940.51,-980.9 2124.62,-1443.04 3479.65,-1443.04 877.96,0 1731.87,182.53 2485.18,610.79 276.73,146.37 510.46,373.31 510.46,709.98 0,135.35 -48.16,308.87 -81.98,440.69 -61.19,238.67 -127.97,476.52 -194.48,713.78 -65.26,232.75 -130.74,465.67 -199.31,697.44 -38.33,129.65 -77.42,267.66 -126.61,393.46 -1.41,3.58 -2.61,6.62 -4.13,10.21 -116.13,280.26 -322.77,515.78 -653.03,515.78 -144.63,0 -515.07,-120.09 -657.59,-159.57 -204.41,-56.63 -463.17,-120.09 -676.54,-120.09 -310.28,0 -594.28,70.25 -816.39,295.51 -223.2,226.45 -295.24,522.18 -295.24,833.6 0,16.34 0.22,32.74 0.65,49.13 663.34,-358.93 1403.24,-517.79 2186.19,-517.79 336.18,0 666.22,37.35 986.66,115.48 71.29,-1182.11 457.09,-2270.34 1274.08,-3167.2 934.81,-1026.13 2148.84,-1473.55 3526.99,-1473.55 852.93,0 1621.77,217.22 2298.47,642.55 -50.17,-53.59 -88.44,-117.98 -114.5,-192.68 -49.95,-143.22 -41.1,-284.55 26.39,-420.39l345.25 -694.94 -951.47 -430.1c-175.26,-79.21 -288.18,-230.53 -314.3,-421.09 -26.06,-190.51 42.08,-366.64 189.59,-490.04l157.94 -132.15c30.02,-47.18 68.08,-90.51 113.74,-128.73l4002.7 -3350.76c171.56,-143.6 399.7,-168.63 598.36,-65.69 198.6,102.94 309.68,303.82 291.22,526.8l-426.47 5153.87c-15.74,190.13 -118.74,346.11 -287.42,435.26 -11.4,5.97 -22.86,11.56 -34.37,16.78 -48.54,103.1 -129.54,187.47 -237.42,244.42 -168.69,89.09 -355.56,86.27 -521.48,-7.82l-611.71 -347.04 -209.51 475.76c-57.71,131.01 -155.28,227.59 -280.64,280.2 -76.77,158.97 -214.4,263.7 -389.76,296 -182.31,33.55 -354.42,-20.63 -484.67,-152.62 -188.18,-190.67 -413.44,-338.95 -653.57,-455.78 234.33,166.95 456.87,360.28 667.25,579.46 537.11,559.7 909.34,1192.21 1112.83,1891 -7.17,-93.11 -17.1,-185.84 -30.3,-277.98 -25.03,-174.71 28.67,-335.85 153.48,-460.67l419.79 -419.9c23.13,-23.13 47.4,-43.76 72.7,-61.89l107.12 -107.12c17.21,-24.16 36.59,-47.23 58.26,-68.84l2540.61 -2540.61c21.61,-21.61 44.57,-40.99 68.68,-58.2zm-9720.45 12591.48c56.63,-244.97 253.6,-429.56 511.65,-479.46 368.21,-71.23 735.99,-144.42 1104.42,-214.56 121.83,-42.62 306.43,-118.9 306.43,-260.33 0,-157.28 -189.86,-409.31 -284.22,-521.59 -129.11,-153.59 -259.68,-305.88 -389.6,-458.77 -272.49,-45.44 -540.48,-110.05 -801.63,-196.05 -116.13,428.64 -379.34,784.85 -876.28,896.42 -4.61,1.03 -8.58,1.9 -13.25,2.82 -70.85,14.06 -149.85,24.05 -229.82,32.36 194.15,250.07 357.19,573.92 466.15,786.04 57.33,111.52 132.8,256.59 206.15,413.11zm-2276.04 -1031.99c-560.51,59.56 -1122.66,111.41 -1684.91,159.13 203.22,73.67 417.89,103.81 636.74,103.81 370.27,0 720.13,-101.53 1048.17,-262.94zm14644.5 -5118.09c429.83,-512.63 1077.97,-717.36 1731.38,-578.65 208.37,44.19 427.66,48.75 615.51,-52.77 42.62,-65.1 82.69,-141.43 103.32,-207.72 46.47,-160.54 161.03,-284.22 304.47,-346.71 106.25,-220.43 350.57,-346.11 598.3,-295.08 279.71,57.6 466.37,320.49 428.58,603.57 -130.63,978.57 -446.07,2151.5 -1249.05,2806.86 -649.99,727.41 -1597.66,929.43 -2487.19,530.76 -57.88,-25.95 -112.93,-55.6 -164.94,-88.77 -291.98,283.84 -739.19,385.64 -1142.53,358.55l-3860.4 462.14c-170.42,24.65 -372.07,15.69 -538.42,-16.83 -257.07,-50.22 -438.36,-269.83 -438.85,-531.79 -0.81,-413.76 -0.87,-827.52 0.98,-1241.29 0.98,-219.45 124.55,-407.08 323.85,-494.33 56.74,-119.82 157.23,-215.38 289,-268.15 334.12,-133.88 775.67,-215.98 1139.54,-228.14l3238.7 -285.58c308,-69.49 621.27,-42.13 886.16,78.18 67.92,-74.27 142.14,-142.79 221.57,-204.25zm-4687.93 7204.11c-22.64,2.77 -45.71,4.18 -69.11,4.07l-843.32 -3.75c-153.38,-0.71 -285.09,-57.5 -390.8,-168.52 -105.76,-111.08 -156.04,-245.4 -149.2,-398.61 26.01,-583.26 37.14,-1167.34 40.56,-1751.15 0.92,-151.31 56.3,-281.18 164.94,-386.51 48.86,-47.4 102.34,-83.88 160.16,-109.34 27.04,-55.05 64.34,-105.76 111.73,-151.75 108.58,-105.27 240.08,-156.69 391.34,-153l813.08 19.98c24,0.6 47.61,2.71 70.69,6.35 12.32,-3.58 24.87,-6.73 37.57,-9.45l2264.75 -487c107.39,-23.07 205.44,-15.53 308.05,23.73l3521.4 1346.56c243.94,93.27 384.72,339.38 341.5,596.94 -2.66,15.91 -5.97,31.6 -9.94,46.96 -4.72,207.99 -128.29,396.61 -324.78,482.5 -58.31,121.34 -161.95,220.16 -297.25,271.62l-3504.52 1331.95c-104.62,39.74 -204.79,46.69 -313.92,21.72l-2275.18 -520.18c-16.29,-3.75 -32.2,-8.09 -47.78,-13.14z"/>
 </g>
 <g id="Capa_x0020_1_0">
  <metadata id="CorelCorpID_1Corel-Layer"/>
  <path class="fil1" d="M9067.26 10117.92c0,113.58 -57.98,171.84 -176.83,171.84 -204.36,0 -1013.69,-40.77 -2430.72,-122.27 -33.12,1439.02 -49.73,2443.86 -49.73,3011.92 0,670.02 24.87,1680.78 74.6,3026.58 49.73,1348.79 74.54,2359.55 74.54,3029.57 0,107.77 -24.81,177.64 -71.83,203.87 -16.56,11.56 -93.87,26.28 -226.45,43.71 -323.2,46.64 -798.26,67 -1425.34,67 -696.08,0 -1182.27,-20.36 -1463.99,-67 -151.91,-29.21 -226.45,-116.57 -226.45,-265.06 0,-670.02 27.58,-1677.96 82.85,-3020.72 55.22,-1345.8 82.85,-2350.86 82.85,-3023.81 0,-442.7 -22.15,-1433.1 -66.29,-2971.15 -1074.5,116.51 -1933.57,174.82 -2571.61,174.82 -85.62,0 -129.87,-29.15 -129.87,-84.42 0,-75.79 38.66,-294.32 113.25,-658.46 85.62,-398.99 135.41,-640.7 146.43,-725.29 13.74,-267.99 33.12,-533.04 55.22,-801.03 38.66,-428.15 102.23,-640.81 193.39,-640.81 11.02,0 49.68,2.93 113.2,8.74 872.91,116.46 2162.84,174.77 3869.91,174.77 486.13,0 1381.14,-52.5 2684.92,-160.27 698.85,-55.38 1052.4,-84.53 1057.94,-84.53 107.72,0 168.52,5.92 185.03,20.47 16.61,14.55 27.69,69.82 33.17,166.03 0,154.35 -5.48,367.02 -16.56,640.81 -11.08,303.06 -16.61,515.61 -16.61,640.92 0,142.73 19.38,349.59 52.56,626.21 35.83,276.73 52.45,483.58 52.45,617.58zm8593.34 5167.66c0,1296.28 -375.65,2350.7 -1129.72,3160.58 -751.35,806.84 -1740.23,1211.7 -2963.93,1211.7 -1184.99,0 -2162.79,-398.99 -2927.99,-1197.15 -765.14,-795.27 -1149.1,-1820.64 -1149.1,-3073.22 0,-1322.56 367.34,-2394.51 1099.37,-3215.85 734.85,-824.43 1726.39,-1235.21 2977.72,-1235.21 1218.16,0 2206.98,402.03 2961.16,1208.98 754.07,806.84 1132.48,1852.56 1132.48,3140.16zm-2651.69 -2.93c0,-448.67 -132.64,-844.79 -397.8,-1191.45 -262.45,-343.72 -607.69,-515.56 -1027.59,-515.56 -428.1,0 -778.93,177.7 -1052.4,530.22 -259.63,329.12 -389.49,722.41 -389.49,1176.79 0,463.22 129.87,859.29 389.49,1188.51 273.47,352.41 624.31,530.11 1052.4,530.11 419.9,0 770.63,-177.7 1044.15,-530.11 254.09,-329.23 381.24,-725.29 381.24,-1188.51zm8996.52 -1124.5c0,224.34 -115.97,335.09 -348.01,335.09 -102.18,0 -251.37,-8.74 -447.48,-23.24 -196.05,-14.71 -342.53,-20.52 -439.17,-20.52 -444.76,0 -748.58,72.86 -908.8,221.46 -162.99,148.54 -243.12,448.56 -243.12,897.13 0,244.7 2.77,617.58 11.13,1115.65 8.25,498.13 11.02,871.07 11.02,1115.71 0,166.03 11.02,410.72 30.4,739.95 19.33,326.24 30.35,570.88 30.35,731.05 0,136.93 -88.39,212.72 -267.93,230.15 -256.91,23.35 -654.6,34.96 -1187.7,34.96 -511.05,0 -919.88,-17.37 -1226.46,-52.39 -179.54,-23.35 -267.93,-116.57 -267.93,-282.59 0,-454.32 2.77,-1135.96 8.31,-2041.99 5.48,-908.85 8.25,-1590.49 8.25,-2044.87 0,-1337.11 -116.02,-2438.11 -348.07,-3300.32 -11.02,-52.5 -16.56,-96.21 -16.56,-128.29 0,-87.36 41.43,-142.73 121.51,-171.84 298.34,-34.96 734.79,-96.1 1306.6,-189.37 856.24,-177.64 1295.47,-265 1323.1,-265 96.64,0 160.22,177.64 185.03,532.99 27.63,358.38 77.37,536.03 146.43,536.03 -74.6,0 143.66,-148.6 660.14,-448.67 516.59,-297.09 1013.75,-445.63 1491.68,-445.63 301.05,0 450.19,67 450.19,203.92 0,166.13 -16.56,399.05 -49.73,699.07 -33.17,326.35 -52.45,559.32 -57.93,699.12 0,166.03 2.77,384.61 8.25,658.4 11.02,334.98 16.5,556.33 16.5,664.05zm6311.76 0c0,224.34 -116.02,335.09 -348.01,335.09 -102.23,0 -251.37,-8.74 -447.48,-23.24 -196.1,-14.71 -342.53,-20.52 -439.17,-20.52 -444.76,0 -748.64,72.86 -908.85,221.46 -162.93,148.54 -243.07,448.56 -243.07,897.13 0,244.7 2.77,617.58 11.13,1115.65 8.25,498.13 11.02,871.07 11.02,1115.71 0,166.03 11.02,410.72 30.35,739.95 19.33,326.24 30.4,570.88 30.4,731.05 0,136.93 -88.39,212.72 -267.93,230.15 -256.91,23.35 -654.66,34.96 -1187.75,34.96 -511.05,0 -919.82,-17.37 -1226.46,-52.39 -179.54,-23.35 -267.93,-116.57 -267.93,-282.59 0,-454.32 2.77,-1135.96 8.31,-2041.99 5.48,-908.85 8.25,-1590.49 8.25,-2044.87 0,-1337.11 -115.97,-2438.11 -348.07,-3300.32 -11.02,-52.5 -16.56,-96.21 -16.56,-128.29 0,-87.36 41.48,-142.73 121.56,-171.84 298.34,-34.96 734.79,-96.1 1306.55,-189.37 856.3,-177.64 1295.52,-265 1323.1,-265 96.69,0 160.22,177.64 185.08,532.99 27.63,358.38 77.31,536.03 146.43,536.03 -74.65,0 143.66,-148.6 660.14,-448.67 516.54,-297.09 1013.75,-445.63 1491.63,-445.63 301.11,0 450.25,67 450.25,203.92 0,166.13 -16.56,399.05 -49.73,699.07 -33.17,326.35 -52.5,559.32 -57.98,699.12 0,166.03 2.77,384.61 8.25,658.4 11.08,334.98 16.56,556.33 16.56,664.05zm8366.89 690.49c0,573.87 -176.78,902.94 -527.61,981.71 -57.98,11.51 -615.95,69.87 -1676.66,180.58 -635.27,72.7 -1585.55,157.28 -2850.62,256.31 74.6,375.76 303.82,661.17 687.78,859.29 312.13,160.27 665.73,241.76 1063.48,241.76 480.6,0 961.25,-133.94 1447.38,-401.93 204.41,-134.05 408.82,-267.99 613.23,-402.09 113.25,55.43 306.64,343.78 574.58,865.15 267.93,521.48 403.28,850.65 403.28,993.44 0,37.84 -41.48,104.78 -121.56,195.07 -657.43,739.9 -1679.43,1109.9 -3066.11,1109.9 -1284.45,0 -2320.24,-396.28 -3107.48,-1185.53 -809.34,-801.08 -1212.67,-1873.09 -1212.67,-3215.95 0,-1307.9 361.86,-2379.85 1085.58,-3215.95 745.81,-865.2 1731.93,-1296.34 2963.93,-1296.34 1035.84,0 1914.19,399.16 2637.9,1194.38 723.72,795.27 1085.58,1741.97 1085.58,2840.2zm-2834.06 -518.55c0,-352.52 -118.79,-661.17 -356.32,-929.21 -237.58,-268.04 -519.36,-402.09 -848.05,-402.09 -339.71,0 -621.48,148.65 -842.4,445.79 -204.41,276.73 -306.7,600.04 -306.7,969.99 0,151.42 74.6,227.21 226.56,227.21 397.69,0 1019.23,-58.26 1858.97,-174.71 179.54,-29.21 267.93,-72.86 267.93,-136.98zm8452.51 -1747.73c0,58.15 -41.48,133.94 -121.56,230.09 -149.2,-37.9 -301.11,-58.31 -450.25,-58.31 -317.66,0 -582.88,72.86 -798.31,221.4 -256.86,168.96 -386.72,407.79 -386.72,719.59 0,198 138.12,451.44 411.59,757.22 414.36,463.22 671.27,771.93 767.91,932.2 273.42,431.08 411.59,897.29 411.59,1392.38 0,288.35 -52.5,597.27 -160.22,920.47 -124.28,358.38 -281.72,620.51 -469.57,786.59 -397.8,364.14 -861.84,669.91 -1394.93,920.53 -574.58,262.12 -1104.96,393.19 -1588.32,393.19 -107.72,0 -350.78,-308.71 -726.43,-926.28 -378.47,-617.58 -566.27,-993.44 -566.27,-1130.2 0,-49.57 30.35,-81.66 88.39,-93.22 378.42,-72.86 756.84,-148.6 1140.79,-221.46 472.34,-160.16 709.87,-422.39 709.87,-786.48 0,-250.56 -138.07,-541.78 -411.54,-870.9 -491.67,-576.8 -745.81,-879.81 -767.91,-914.66 -273.42,-407.9 -411.59,-841.86 -411.59,-1296.34 0,-853.53 408.82,-1578.88 1229.23,-2176.04 731.97,-530.11 1516.44,-795.22 2350.7,-795.22 85.62,0 298.28,305.88 635.27,920.53 339.76,614.64 508.29,972.86 508.29,1074.93z"/>
  <path class="fil2" d="M11711.89 11272.89c0,1045.67 -326.19,1913.81 -981.66,2601.26 -745.71,789.36 -2053.61,1185.53 -3923.71,1185.53 -142.79,0 -346.71,-2.88 -614.7,-8.74 -273.8,0 -474.79,0 -605.85,0 -2100.25,0 -3347.02,-43.65 -3746.12,-128.13 -166.03,-34.91 -247.57,-122.37 -247.57,-265 0,-608.89 34.96,-1529.36 104.89,-2764.51 69.93,-1235.15 104.84,-2158.45 104.84,-2773.15 0,-661.23 -34.91,-1899.2 -104.84,-3719.84 -17.48,-466.1 -49.51,-1168.1 -96.15,-2100.3l-8.74 -119.39c-5.86,-107.77 84.48,-171.89 267.99,-195.13 186.44,-23.35 844.79,-34.91 1977.93,-34.91 1817.71,0 2877.98,5.81 3186.8,17.43 1401.12,49.57 2435.23,279.71 3102.27,681.59 882.63,541.78 1322.51,1456.56 1322.51,2744.04 0,334.93 -101.96,690.38 -308.76,1066.14 -148.54,268.04 -340.85,535.97 -579.73,803.96 -212.61,233.13 -317.5,340.85 -317.5,323.42 0,40.72 72.86,101.85 221.4,186.33 399.1,227.32 710.8,588.53 940.89,1083.73 203.92,442.65 305.83,914.61 305.83,1415.67zm-3670.27 -4809.33c0,-489.39 -244.7,-812.76 -734.09,-972.97 -270.92,-84.42 -719.54,-128.13 -1345.8,-128.13 -611.71,0 -920.53,46.64 -920.53,136.93 0,107.77 -8.69,270.86 -29.1,489.34 -20.41,218.53 -29.1,384.5 -29.1,492.27 0,568.01 49.51,885.56 145.61,955.44 61.19,49.57 422.39,75.79 1080.74,75.79 1220.49,0 1832.26,-349.59 1832.26,-1048.66zm262.18 4774.31c0,-509.7 -212.66,-856.35 -640.87,-1039.86 -273.85,-113.63 -719.54,-169.01 -1334.18,-169.01 -736.96,0 -1136.01,26.17 -1200.13,81.6 -61.13,52.5 -93.22,401.98 -93.22,1042.85 0,669.97 37.9,1039.92 110.7,1109.84 75.74,72.86 486.46,107.66 1232.22,107.66 617.52,0 1048.66,-49.51 1302.04,-145.56 416.59,-163.09 623.44,-492.27 623.44,-987.52zm10087.52 -1605.05c0,224.39 -122.37,335.04 -367.02,335.04 -107.77,0 -265.11,-8.8 -471.91,-23.29 -206.8,-14.6 -361.21,-20.41 -463.17,-20.41 -468.98,0 -789.41,72.81 -958.37,221.35 -171.89,148.6 -256.37,448.56 -256.37,897.24 0,244.7 2.93,617.58 11.73,1115.71 8.74,498.13 11.62,870.9 11.62,1115.71 0,165.92 11.62,410.56 32.09,739.79 20.36,326.3 31.98,570.94 31.98,731.21 0,136.87 -93.22,212.55 -282.54,230.09 -270.92,23.29 -690.33,34.91 -1252.52,34.91 -538.96,0 -970.04,-17.43 -1293.41,-52.45 -189.32,-23.35 -282.54,-116.51 -282.54,-282.54 0,-454.37 2.93,-1136.01 8.74,-2041.88 5.81,-909.02 8.74,-1590.55 8.74,-2044.98 0,-1337.11 -122.37,-2438.16 -367.07,-3300.38 -11.62,-52.5 -17.48,-96.21 -17.48,-128.24 0,-87.36 43.71,-142.68 128.18,-171.84 314.57,-34.91 774.86,-96.1 1377.83,-189.26 902.99,-177.75 1366.16,-265.11 1395.31,-265.11 101.96,0 168.96,177.64 195.18,533.1 29.1,358.28 81.55,535.92 154.35,535.92 -78.62,0 151.53,-148.49 696.19,-448.56 544.77,-297.09 1069.07,-445.63 1573.01,-445.63 317.56,0 474.84,66.89 474.84,203.92 0,165.92 -17.48,398.99 -52.45,699.01 -34.96,326.24 -55.32,559.27 -61.13,699.12 0,165.97 2.88,384.5 8.69,658.35 11.67,334.93 17.48,556.33 17.48,664.1zm9784.68 -2435.23c0,422.34 -20.41,1054.57 -61.19,1896.32 -40.77,841.8 -61.13,1473.93 -61.13,1893.45 0,410.72 14.55,1025.37 43.71,1843.93 29.1,821.44 43.65,1433.21 43.65,1838.07 0,151.42 -69.93,250.5 -212.61,288.35 -218.47,58.36 -675.83,87.46 -1377.89,87.46 -620.45,0 -1051.53,-17.54 -1299.16,-52.45 -107.77,-17.48 -174.77,-84.48 -203.92,-203.92 -14.55,-168.96 -31.98,-340.79 -46.58,-509.81 -26.22,-262.12 -64.06,-393.19 -110.7,-393.19 78.62,0 -206.8,195.13 -862.27,579.63 -655.36,387.48 -1252.52,579.73 -1788.5,579.73 -1508.95,0 -2406.13,-681.64 -2682.86,-2042.1 -125.25,-632.13 -189.37,-1546.74 -189.37,-2746.87 0,-1299.11 104.89,-2324.47 314.62,-3075.99 64.06,-233.08 180.58,-349.64 349.53,-349.64 262.18,0 661.23,2.93 1197.26,8.74 533.04,5.75 932.15,8.69 1194.32,8.69 177.7,0 265.06,72.86 265.06,221.46 0,40.77 -5.81,98.97 -17.43,180.63 -116.57,774.75 -174.82,1558.41 -174.82,2356.56 0,990.35 32.03,1669.06 93.22,2033.19 101.96,626.37 474.84,940.94 1118.59,940.94 250.5,0 521.42,-110.7 812.7,-334.93 294.21,-221.51 445.69,-454.43 457.36,-693.37 11.62,-209.79 17.43,-1640.06 17.43,-4284.92 0,-189.43 14.55,-300.07 43.71,-335.09 32.09,-55.27 133.99,-84.48 305.88,-84.48 279.66,0 696.19,2.93 1258.39,8.85 559.32,5.81 978.78,8.63 1258.39,8.63 168.96,0 267.99,43.81 297.14,128.24 11.62,43.71 17.48,113.58 17.48,203.87zm7043.51 2149.81c-5.81,0 -177.64,-46.64 -512.68,-139.86 -337.86,-93.17 -611.71,-139.8 -821.44,-139.8 -503.94,0 -902.99,151.48 -1203.01,457.3 -300.07,302.95 -451.55,710.74 -451.55,1214.74 0,524.36 166.03,938.01 495.2,1235.15 329.17,300.02 757.38,448.56 1284.61,448.56 250.5,0 533.1,-61.13 844.73,-183.56 311.75,-122.32 460.29,-183.51 442.81,-183.51 96.1,0 221.4,358.22 372.83,1077.87 131.12,655.42 195.18,1089.38 195.18,1304.97 0,212.66 -352.47,396.17 -1057.4,550.52 -544.72,119.44 -987.47,177.64 -1322.51,177.64 -1249.65,0 -2280.82,-419.35 -3093.52,-1261.21 -812.7,-841.86 -1220.55,-1890.57 -1220.55,-3148.96 0,-1243.84 407.84,-2292.49 1223.42,-3140.27 812.76,-850.49 1843.93,-1275.87 3087.77,-1275.87 844.73,0 1590.44,183.67 2231.31,547.76 148.6,78.62 221.4,154.35 221.4,230.09 0,72.75 -84.48,407.74 -256.31,1007.88 -157.34,573.92 -262.18,920.53 -308.81,1039.86 -49.51,119.5 -99.03,180.68 -151.48,180.68zm9455.5 975.8c0,573.87 -186.44,903.1 -556.39,981.66 -61.13,11.73 -649.61,69.93 -1768.14,180.58 -670.02,72.86 -1672.1,157.34 -3006.22,256.42 78.67,375.76 320.43,661.23 725.35,859.29 329.17,160.22 702.05,241.76 1121.46,241.76 506.87,0 1013.75,-134.05 1526.43,-402.03 215.54,-133.94 431.08,-267.88 646.62,-401.87 119.44,55.38 323.37,343.78 605.96,865.09 282.54,521.48 425.27,850.6 425.27,993.33 0,37.84 -43.71,104.95 -128.18,195.24 -693.26,739.84 -1771.07,1109.79 -3233.38,1109.79 -1354.54,0 -2446.85,-396.17 -3277.09,-1185.58 -853.48,-801.08 -1278.8,-1873.09 -1278.8,-3215.95 0,-1307.9 381.62,-2379.91 1144.81,-3215.9 786.48,-865.15 1826.45,-1296.23 3125.61,-1296.23 1092.36,0 2018.7,398.99 2781.89,1194.27 763.19,795.27 1144.81,1741.97 1144.81,2840.14zm-2988.74 -518.49c0,-352.41 -125.25,-661.23 -375.76,-929.21 -250.5,-267.99 -547.65,-402.03 -894.3,-402.03 -358.28,0 -655.36,148.54 -888.39,445.69 -215.59,276.78 -323.37,600.09 -323.37,970.1 0,151.48 78.67,227.1 238.89,227.1 419.41,0 1074.88,-58.2 1960.39,-174.71 189.37,-29.21 282.54,-72.86 282.54,-136.93z"/>
  <path class="fil3" d="M9067.26 10117.92c0,113.63 -58.04,172 -176.78,172 -131.01,0 -510.67,-16.78 -1139.54,-50.27 -28.23,-14.71 -57.6,-28.56 -88.01,-41.64 -273.85,-113.63 -719.54,-169.01 -1334.18,-169.01 -736.96,0 -1136.01,26.17 -1200.13,81.6 -61.13,52.5 -93.22,401.98 -93.22,1042.85 0,669.97 37.9,1039.92 110.7,1109.84 75.74,72.86 486.46,107.66 1232.22,107.66l38.44 0c-4.56,329.01 -6.79,598.63 -6.79,808.47 0,463.22 11.89,1089.38 35.62,1876.45 -77.04,-1.3 -161.63,-2.93 -253.76,-4.94 -273.8,0 -474.79,0 -605.85,0 -943.49,0 -1714.61,-8.8 -2314.1,-26.11 25.84,-774.43 38.82,-1390.64 38.82,-1851.15 0,-442.75 -22.1,-1433.21 -66.24,-2971.15 -546.29,59.18 -1036.82,103.32 -1471,132.42 19.06,-489.23 28.56,-894.03 28.56,-1214.79 0,-357.3 -10.21,-883.23 -30.62,-1578.39 827.74,72.59 1915.38,109.02 3262.97,109.02 486.13,0 1381.09,-52.56 2684.87,-160.33 698.91,-55.38 1052.46,-84.37 1058,-84.37 107.66,0 168.52,5.7 185.03,20.31 16.56,14.6 27.63,69.98 33.17,166.03 0,154.35 -5.54,367.02 -16.61,640.81 -11.08,303.06 -16.56,515.72 -16.56,640.92 0,142.79 19.33,349.59 52.5,626.26 35.94,276.67 52.5,483.53 52.5,617.52z"/>
  <path class="fil3" d="M9531.46 14645.69c114.88,-987.31 467.89,-1812.12 1057.78,-2474.05 324.07,-363.65 698.2,-646.78 1122.44,-849.68 -10.1,1023.85 -336.29,1875.53 -981.44,2552.18 -305.34,323.26 -704.93,580.49 -1198.78,771.55z"/>
  <path class="fil3" d="M12867.78 10983.02c223.3,-31 456.33,-46.53 699.12,-46.53 894.79,0 1665.85,216.95 2311.06,651.83 1.79,167 4.45,357.08 8.25,570.12 8.74,498.13 11.62,870.9 11.62,1115.71 0,165.92 11.62,410.56 32.09,739.79 20.36,326.3 31.98,570.94 31.98,731.21 0,136.87 -93.22,212.55 -282.54,230.09 -170.86,14.66 -400.79,24.76 -688.32,30.24 -44.14,-336.56 -170.86,-640.81 -379.94,-914.28 -262.45,-343.72 -607.75,-515.56 -1027.65,-515.56 -275.43,0 -518.82,73.62 -730.23,219.94 1.47,-334.17 3.58,-721.71 6.41,-1162.29 4.34,-675.72 7.06,-1225.76 8.14,-1650.27z"/>
  <path class="fil3" d="M24005.42 14158.25c0,224.23 -115.97,335.04 -348.01,335.04 -102.18,0 -251.37,-8.8 -447.53,-23.29 -196.05,-14.71 -342.48,-20.41 -439.17,-20.41 -444.71,0 -748.58,72.75 -908.69,221.4 -82.09,74.81 -143.11,187.85 -183.51,339.06 -1172.17,-155.11 -1881.45,-824.59 -2121.96,-2006.97 -82.14,-414.52 -138.01,-950.71 -166.73,-1609.23 137.03,-21.01 284.33,-44.3 441.94,-69.93 856.24,-177.64 1295.42,-265.06 1323.1,-265.06 96.64,0 160.22,177.7 185.03,533.04 27.63,358.33 77.37,535.97 146.37,535.97 -74.6,0 143.71,-148.54 660.25,-448.62 141,-81 280.47,-151.1 418.54,-210 7.38,62.92 15.36,119.88 23.89,170.59 101.96,626.37 474.84,940.94 1118.59,940.94 94.96,0 192.85,-16.02 293.67,-47.94 -10.75,127.42 -17.65,228.41 -20.58,302.84 0,166.03 2.77,384.66 8.25,658.4 11.08,334.98 16.56,556.39 16.56,664.16z"/>
  <path class="fil3" d="M28139.62 14705.74c-49.13,55.49 -89.58,126.99 -121.29,214.45 -25.84,15.96 -55.81,28.5 -89.91,37.52 -218.47,58.36 -675.83,87.46 -1377.89,87.46 -620.45,0 -1051.53,-17.54 -1299.16,-52.45 -79.16,-12.81 -136.44,-52.5 -172.7,-119.93 -12.22,-1133.95 -111.52,-2090.69 -298.12,-2867.94 124.06,-147.4 189.48,-298.55 197.03,-452.36 0.76,-13.57 1.47,-32.58 2.17,-56.57 288.84,-36.48 677.24,-92.79 1163.7,-172 856.3,-177.64 1295.47,-265.06 1323.1,-265.06 96.69,0 160.22,177.7 185.03,533.04 27.69,358.33 77.37,535.97 146.43,535.97 -51.85,0 37.73,-71.72 270.43,-216.14 7.11,270.97 16.78,577.4 28.94,919.55 29.1,821.44 43.65,1433.21 43.65,1838.07 0,12.43 -0.43,24.59 -1.41,36.38z"/>
  <path class="fil3" d="M29204.02 11349.49c253.6,-77.2 502.2,-115.86 745.81,-115.86 301.05,0 450.19,66.94 450.19,203.87 0,166.13 -16.61,399.05 -49.68,699.07 -33.17,326.35 -52.5,559.37 -58.09,699.12 0,166.03 2.82,384.66 8.31,658.4 4.13,123.68 7.44,231.94 9.99,324.72 -631.47,-688.75 -1000.83,-1511.34 -1106.53,-2469.33z"/>
  <path class="fil3" d="M30975.75 14411.04c133.5,-901.69 473.76,-1668.62 1020.86,-2300.53 145.39,-168.69 299.97,-320.81 463.66,-456.54 71.83,118.79 160.43,225.86 265.76,320.98 329.17,300.02 757.38,448.56 1284.61,448.56 250.5,0 533.1,-61.13 844.73,-183.56 311.75,-122.32 460.29,-183.51 442.81,-183.51 96.1,0 221.4,358.22 372.83,1077.87 131.12,655.42 195.18,1089.38 195.18,1304.97 0,212.66 -352.47,396.17 -1057.4,550.52 -544.72,119.44 -987.47,177.64 -1322.51,177.64 -967.92,0 -1804.73,-251.65 -2510.53,-756.4zm4874.26 -80.9c0,-352.57 -118.85,-661.23 -356.32,-929.27 -237.64,-267.93 -519.36,-401.93 -848.1,-401.93 -339.71,0 -621.54,148.49 -842.45,445.69 -204.41,276.73 -306.59,599.88 -306.59,969.93 0,151.42 74.6,227.27 226.51,227.27 397.69,0 1019.23,-58.26 1858.97,-174.82 179.54,-29.15 267.99,-72.81 267.99,-136.87z"/>
  <path class="fil3" d="M36488.27 11156.48c403.66,198.17 773.67,482.28 1110.22,852.01 686.04,753.85 1046.81,1643.92 1082.48,2670.04 -337.54,-176.29 -645.7,-396.77 -924.27,-661.66 -776.82,-729.09 -1198.78,-1682.47 -1268.43,-2860.39z"/>
  <path class="fil3" d="M43891.74 12761.91c-53.91,-5.16 -107.72,-7.76 -161.14,-7.76 -317.72,0 -582.88,72.86 -798.26,221.51 -256.91,168.9 -386.72,407.68 -386.72,719.48 0,198.06 138.12,451.44 411.54,757.27 113.36,126.72 214.89,241.87 304.53,345.57 -602.54,269.62 -1345.09,404.48 -2227.89,404.48 -277.05,0 -543.2,-16.61 -798.37,-49.73 -151.53,-180.09 -232.81,-279.17 -244.86,-298.28 -273.47,-407.84 -411.59,-841.8 -411.59,-1296.28 0,-391.29 85.89,-755.42 257.94,-1092.85 70.47,49.13 147.95,94.47 232.7,135.84 329.17,160.22 702.05,241.76 1121.46,241.76 506.87,0 1013.75,-134.05 1526.43,-402.03 215.54,-133.94 431.08,-267.88 646.62,-401.87 108.1,50.11 285.41,291.12 527.61,722.9zm-3420.2 -1106.7c103.21,-93.87 215.38,-184.87 336.61,-273.09 731.97,-530.11 1516.49,-795.22 2350.59,-795.22 78.07,0 261.47,253.93 548.19,763.51 -295.19,30.19 -747.12,74.81 -1356.44,135.03 -465.83,50.65 -1092.15,106.96 -1878.95,169.77z"/>
  <path class="fil4" d="M42576.07 4155.59l1464.59 662.04 -595.75 1199.26c342.58,160.6 624.09,356.59 849.73,585.22l122.43 -278.09c-210.76,-195.24 -465.94,-364.9 -768.62,-506.71l595.8 -1199.32 -1441.95 -651.67 -226.24 189.26zm2409.17 1141.17l1167.18 662.15 24.97 -300.83 -1081.07 -613.4 -111.08 252.08zm1334.4 12612.33l-1.19 200.5 -843.32 -3.75c24.54,-549.76 37.35,-1134.55 41.1,-1772.16l202.02 4.99c-5.16,558.83 -17.7,1077.16 -39.58,1567.53l640.98 2.88zm6031.72 -710.9l-8.69 -3.26 -10.37 3.91 19.06 -0.65zm-163.09 -62.33l-301.65 -115.32 -2242.65 73.29c-539.34,-452.15 -841.91,-317.01 -920.47,-86.38 155.98,-44.74 393.84,15.2 716.93,286.01l121.83 -3.96c18.35,-14.12 36.81,-28.56 55.76,-44.03l2570.25 -109.62zm-5420.55 -840.88l-202.56 43.65 -11.18 1793.71 2275.18 520.18 3504.52 -1331.95 -362.24 15.47 -2938.79 1116.96 -2275.07 -520.28 10.15 -1637.73zm-804.07 -8069.42l-1.95 -2.12 -419.79 419.9c50.93,356.16 62.16,742.88 38.55,1155.99 -18.46,324.94 -32.03,665.95 -41.48,1021.35 607.75,358.38 1108.32,-196.48 1108.32,-196.48l114.99 -117.76c-169.77,139.31 -564.64,383.03 -1019.77,114.72 9.39,-355.51 23.02,-696.41 41.48,-1021.4 23.67,-413.11 12.43,-799.84 -38.55,-1156.05l218.2 -218.15zm2778.74 -2778.52l-2.06 -2.01 -2540.61 2540.61 1574.75 1574.42 202.67 -200.39 -1573.88 -1573.66 2339.13 -2338.97zm1943.5 1163.54l-1588.81 -1581.54 282.59 -121.02 1414.91 1408.62 -108.69 293.94zm-26.87 6705.98c-208.59,380.92 -857.87,312.18 -857.87,312.18l-3922.73 469.63c0,0 -170.15,26.01 -362.18,-11.51 -0.81,-423.21 -0.81,-836.27 0.98,-1237.81 65.91,-26.28 134.48,-49.13 203,-68.63 -1.3,360.18 -1.03,729.47 -0.49,1106.8 192.09,37.57 362.24,11.56 362.24,11.56l3922.79 -469.63c0,0 382.16,40.39 654.28,-112.6zm3385.73 -2560.1c0,0 -68.95,244.91 -266.79,485.27 91.59,-71.83 167.11,-151.8 228.84,-231.18 13.57,-82.31 26.33,-167 37.95,-254.09zm-2638.66 1116.69c-546.72,422.83 -665.24,1267.24 -65.59,1536.04 536.25,240.35 1282.98,259.19 1870.37,-408.44 -549.11,460.89 -1190.85,422.18 -1666.83,208.86 -515.56,-231.01 -500.03,-888.17 -137.96,-1336.46z"/>
  <path class="fil5" d="M42847.91 3894.61l1464.7 661.93 -596.02 1199.05c342.75,160.54 624.2,356.81 849.84,585.43l598.08 -1357.91 1259.64 714.6 426.47 -5153.87 -4002.7 3350.76z"/>
  <path class="fil5" d="M54316.52 10495.15c0,0 -330.31,1176.41 -1624.75,901.63 -1294.49,-274.77 -1958.43,1357.31 -1079.5,1751.09 878.94,393.89 2324.36,193.06 2704.25,-2652.72z"/>
  <path class="fil6" d="M50053.21 12107.69c0,0 840.23,-218.36 935.08,574.41 95.07,792.61 -915.37,685.39 -915.37,685.39l-3922.79 469.85c0,0 -170.26,25.95 -362.13,-11.78 -0.65,-422.99 -0.65,-836.21 1.03,-1237.43 431.57,-172.92 969.77,-189.91 969.77,-189.91l3294.41 -290.52z"/>
  <polygon class="fil5" points="50957.62,6349.44 49368.91,4767.74 51951.55,3661.97 "/>
  <polygon class="fil7" points="51634.04,4520.38 51128.15,4014.49 51951.55,3661.97 "/>
  <polygon class="fil6" points="50600.86,6772.54 49012.1,5183.73 46471.6,7724.28 48046.35,9299.03 "/>
  <path class="fil5" d="M47766.15 9495.3l-1532.62 -1532.94 -419.84 419.95c50.98,356.05 62.16,742.77 38.55,1155.83 -18.57,324.94 -31.98,666 -41.53,1021.4 607.86,358.22 1108.49,-196.59 1108.49,-196.59l846.96 -867.65z"/>
  <path class="fil5" d="M52623.09 16937.15l-3521.4 -1346.56 -2264.75 487 -11.18 1793.66 2275.18 520.12 3504.57 -1332.06 -2919.3 124.55c-1201.92,986.87 -1247.91,-1219.3 26.01,-151.48l2910.88 -95.23z"/>
  <path class="fil5" d="M46601.2 16092.64l-10.91 1755.81 -843.27 -3.75c24.54,-549.66 37.19,-1134.71 41.1,-1772.05l813.08 19.98z"/>
 </g>
</svg>
